<?xml version="1.0" encoding="utf-8"?>
<!-- Generator: Adobe Illustrator 15.0.0, SVG Export Plug-In . SVG Version: 6.00 Build 0)  -->
<!DOCTYPE svg PUBLIC "-//W3C//DTD SVG 1.1//EN" "http://www.w3.org/Graphics/SVG/1.1/DTD/svg11.dtd">
<svg version="1.1" id="Layer_1" xmlns="http://www.w3.org/2000/svg" xmlns:xlink="http://www.w3.org/1999/xlink" x="0px" y="0px"
	 width="100px" height="100px" viewBox="0 0 100 100" enable-background="new 0 0 100 100" xml:space="preserve">
<path fill="#FFFFFF" d="M94.654,26.504L52.072,2.439c-1.168-0.696-3.074-0.696-4.242,0L5.248,26.504
	c-1.166,0.699-2.12,2.379-2.12,3.74v35.173c0,1.359,1.064,2.789,2.366,3.178l42.09,15.34c1.302,0.394,3.432,0.394,4.732,0
	l42.092-15.34c1.301-0.389,2.365-1.816,2.365-3.178V30.244C96.773,28.883,95.818,27.203,94.654,26.504z"/>
<g>
	<polygon fill="#2D343B" points="39.641,54.337 38.528,57.827 41.779,57.827 40.696,54.337 	"/>
	<path fill="#2D343B" d="M42.812,39.077c0.193-0.213,0.237-0.538,0.237-1.312c0-0.778-0.044-1.099-0.237-1.312
		c-0.128-0.132-0.366-0.174-0.991-0.174H38.45v2.972h3.372C42.447,39.25,42.684,39.208,42.812,39.077z"/>
	<path fill="#2D343B" d="M60.132,23.21c0-0.131-0.081-0.18-0.196-0.18s-0.265,0.069-0.347,0.118
		c-1.101,0.754-2.202,1.758-2.959,2.68c0.132,0.197,0.312,0.214,0.394,0.214C57.962,26.041,60.132,23.722,60.132,23.21z"/>
	<path fill="#2D343B" d="M57.59,36.407h-2.172c-0.646,0-0.857,0.046-0.99,0.173c-0.15,0.151-0.26,0.624-0.26,3.917
		c0,3.316,0.107,3.769,0.26,3.919c0.133,0.132,0.346,0.174,0.99,0.174h2.172c0.646,0,0.859-0.042,0.991-0.174
		c0.149-0.151,0.259-0.624,0.259-3.919c0-3.293-0.107-3.766-0.259-3.917C58.449,36.453,58.234,36.407,57.59,36.407z"/>
	<path fill="#2D343B" d="M57.729,53.799h-3.373v2.972h3.373c0.625,0,0.861-0.045,0.989-0.174c0.194-0.212,0.24-0.537,0.24-1.312
		c0-0.775-0.046-1.099-0.24-1.315C58.591,53.842,58.354,53.799,57.729,53.799z"/>
	<path fill="#2D343B" d="M74.438,53.842h-3.551l0.041,8.354h3.51c0.973,0,1.338-0.066,1.553-0.278
		c0.236-0.239,0.322-0.883,0.322-3.897c0-3.037-0.086-3.66-0.322-3.899C75.773,53.906,75.409,53.842,74.438,53.842z"/>
	<path fill="#2D343B" d="M96.736,25.732L52.171,0.547c-1.222-0.729-3.217-0.729-4.439,0L3.166,25.732
		c-1.22,0.732-2.219,2.49-2.219,3.914v36.812c0,1.423,1.114,2.918,2.477,3.325l44.05,16.054c1.363,0.411,3.59,0.411,4.953,0
		l44.052-16.054c1.361-0.407,2.478-1.902,2.478-3.325V29.646C98.955,28.223,97.954,26.464,96.736,25.732z M37.292,16.338
		c1.698-0.732,4.251-0.427,7.506-0.427c7.663,0,15.128-0.465,15.459-0.465c0.212,0,0.263-0.194,1.741,0.99
		c0.214,0.181,0.791,0.525,0.791,0.791c0,0.197-0.691,0.344-1.118,0.394c-1.203,0.14-2.717,0.269-4.214,0.377
		c-1.141,0.318-2.005,1.007-2.702,1.666c-2.235,2.126-3.797,3.231-4.215,3.759c1.069-0.525,1.692-0.918,2.55-0.918
		c0.512,0,1.465,0.525,1.465,1.201c0,0.197-0.066,0.279-0.347,0.525c-0.789,0.676-3.306,2.647-3.306,3.487
		c0,0.167,0.099,0.229,0.216,0.229c0.327,0,1.348-0.675,2.301-1.414c0.554-0.427,1.126-1.237,1.294-1.493
		c0.471-0.705,1.115-1.357,1.785-1.961c1.314-1.184,2.318-1.709,2.945-1.709c0.345,0,0.803,0.345,1.218,0.807
		C61.25,22.719,61.3,23,61.3,23.211c0,1.581-2.713,3.818-3.944,3.818c-0.347,0-0.84-0.197-1.201-0.578
		c-0.312,0.476-0.495,0.889-0.495,1.184c0,0.263,0.135,0.61,0.643,0.61c0.296,0,0.655-0.102,0.856-0.164
		c3.007-1.105,4.585-2.568,4.736-2.568c0.129,0,0.145,0.102,0.145,0.164c0,0.181-0.656,0.938-1.331,1.548
		c-1.201,1.099-2.827,2.253-4.438,2.253c-0.701,0-2.183-1.587-2.27-2.282c-1,0.921-2.669,2.131-3.441,2.131
		c-0.935,0-1.414-1.151-1.414-1.971c0-1.036,1.268-2.253,2.384-3.356c-1.282,0.545-2.729,1.778-5.016,4.573
		c-0.132,0.148-0.412,0.804-0.593,0.804c-0.312,0-1.398-0.873-1.398-1.479c0-0.082,0.05-0.23,0.148-0.377
		c2.047-2.992,6.333-6.948,8.954-9.302c-0.666,0.029-1.253,0.045-1.673,0.045c-0.51,0-2.005,1.217-3.126,2.303
		c-1.316,1.279-4.635,4.52-6.79,7.318c-1.284,1.657-1.119,2.185-1.366,2.185c-0.659,0-1.794-1.958-1.794-2.335
		c0-1.037,2.977-3.897,4.474-5.347c2.516-2.431,3.963-3.697,4.259-3.927c0.133-0.098,0.396-0.282,0.396-0.282
		c-3.483-0.61-7.173-1.673-9.385-1.06c-2.785,0.771-4.248,6.757-0.217,5.311c1.704-0.61,3.259-1.938,4.191-3.093
		c0.361-0.45,0.591-0.226,0.202,0.384c-1.253,1.961-3.181,3.824-6.911,3.953C32.342,23.794,33.027,18.179,37.292,16.338z
		 M63.488,40.498c0,4.157-0.492,5.859-1.379,6.718c-0.578,0.584-1.228,0.819-2.797,0.819h-5.617c-1.57,0-2.217-0.235-2.797-0.819
		c-0.886-0.859-1.378-2.561-1.378-6.718c0-4.156,0.492-5.855,1.378-6.715c0.58-0.584,1.227-0.82,2.797-0.82h5.617
		c1.569,0,2.219,0.236,2.797,0.82C62.996,34.642,63.488,36.341,63.488,40.498z M32.443,44.676h1.591v-8.354h-1.591v-3.359h11.662
		c1.291,0,2.132,0.217,2.712,0.794c0.67,0.669,0.883,1.509,0.883,3.382c0,2.674-0.71,3.316-2.453,3.661l2.282,3.877h1.441v3.358
		h-4.655L40.98,42.35h-2.53v2.326h1.635v3.358h-7.642V44.676z M18.16,44.676h4.061v-8.354H18.16v-3.359h13.07v3.359h-4.058v8.354
		h4.058v3.358H18.16V44.676z M30.142,65.556h-7.816v-3.358h1.701v-2.345l-4.372-6.011h-1.494v-3.358h7.824v3.315h-1.312l1.656,2.586
		h0.086l1.789-2.586H26.89v-3.315h7.537v3.358h-1.529l-4.458,5.944v2.41h1.702V65.556z M79.395,64.368
		c-0.904,0.906-2.069,1.188-4.242,1.188h-8.479h-1.782h-4.666l-3.338-5.686h-2.531v2.326h1.638v3.357H48.97h-0.621h-6.764v-3.293
		h1.378l-0.366-1.292h-4.889l-0.345,1.292h1.378v3.293H31.23v-3.357h1.721l3.993-11.778h6.779L47.7,62.196h0.649h0.621h0.972v-8.354
		H48.35v-3.358h11.666c1.289,0,2.129,0.216,2.711,0.797c0.668,0.669,0.881,1.506,0.881,3.383c0,2.666-0.709,3.316-2.453,3.66
		l2.283,3.874h1.455h1.58v-8.354H64.88v-3.359h10.272c2.173,0,3.338,0.279,4.242,1.186c1.029,1.034,1.57,2.585,1.57,6.354
		C80.965,61.786,80.424,63.338,79.395,64.368z M81.741,36.321h-1.556v11.713h-4.957l-5.309-8.59v5.231h1.592l0.021,3.358h-7.188
		v-3.358h1.592V36.32h-1.592v-3.359h6.852l5.011,7.708v-4.35h-1.485V32.96h7.021L81.741,36.321L81.741,36.321z"/>
</g>
</svg>
