<?xml version="1.0" encoding="utf-8"?>
<!-- Generator: Adobe Illustrator 15.0.0, SVG Export Plug-In . SVG Version: 6.00 Build 0)  -->
<!DOCTYPE svg PUBLIC "-//W3C//DTD SVG 1.1//EN" "http://www.w3.org/Graphics/SVG/1.1/DTD/svg11.dtd">
<svg version="1.1" id="Layer_1" xmlns="http://www.w3.org/2000/svg" xmlns:xlink="http://www.w3.org/1999/xlink" x="0px" y="0px"
	 width="185px" height="185px" viewBox="0 0 185 185" enable-background="new 0 0 185 185" xml:space="preserve">
<g>
	<path fill="#36BCAB" d="M92.812,2C43.389,2,3.18,42.208,3.18,91.632c0,49.423,40.208,89.632,89.632,89.632v-10
		c-43.909,0-79.632-35.723-79.632-79.632S48.903,12,92.812,12c23.725,0,45.048,10.44,59.648,26.956l7.436-6.695
		C143.463,13.713,119.482,2,92.812,2z"/>
	<path fill="#6DC8C1" d="M161.977,34.683c-0.678-0.821-1.375-1.626-2.08-2.422l-7.436,6.695c0.7,0.792,1.39,1.592,2.058,2.411
		L161.977,34.683z"/>
</g>
</svg>
